<svg id="Component_55_1" data-name="Component 55 – 1" xmlns="http://www.w3.org/2000/svg" xmlns:xlink="http://www.w3.org/1999/xlink" width="220" height="40" viewBox="0 0 220 40">
  <defs>
    <clipPath id="clip-path">
      <path id="Subtraction_4" data-name="Subtraction 4" d="M20,40a20.148,20.148,0,0,1-4.031-.406,19.89,19.89,0,0,1-7.151-3.009,20.058,20.058,0,0,1-7.246-8.8A19.9,19.9,0,0,1,.406,24.031a20.195,20.195,0,0,1,0-8.061A19.89,19.89,0,0,1,3.416,8.818a20.059,20.059,0,0,1,8.8-7.246A19.9,19.9,0,0,1,15.969.406a20.2,20.2,0,0,1,8.061,0,19.89,19.89,0,0,1,7.151,3.009,20.059,20.059,0,0,1,7.246,8.8,19.9,19.9,0,0,1,1.165,3.754,20.195,20.195,0,0,1,0,8.061,19.89,19.89,0,0,1-3.009,7.151,20.058,20.058,0,0,1-8.8,7.246,19.9,19.9,0,0,1-3.754,1.165A20.148,20.148,0,0,1,20,40ZM20,9.7A10.3,10.3,0,1,0,30.3,20,10.31,10.31,0,0,0,20,9.7ZM9.478,6.94a2.381,2.381,0,1,0,.93.188A2.373,2.373,0,0,0,9.478,6.94Z" transform="translate(60 31)" fill="#fff"/>
    </clipPath>
    <clipPath id="clip-path-2">
      <path id="Text" d="M7.642-21.573H13.47L21.142-.566H15.819L14.511-4.457H6.542L5.234-.566H0ZM12.995-9.022l-2.438-7.315L8.088-9.022ZM22.986-.566V-16.1h4.906v1.58A9.357,9.357,0,0,1,30-15.985a5.813,5.813,0,0,1,2.587-.527,5.674,5.674,0,0,1,2.1.38,4.7,4.7,0,0,1,1.665,1.1,5.1,5.1,0,0,1,1.1,1.77,6.7,6.7,0,0,1,.4,2.4v10.3H32.947V-8.027a8.156,8.156,0,0,0-.431-2.984,1.788,1.788,0,0,0-1.858-1.053,2.429,2.429,0,0,0-2.022.951A4.7,4.7,0,0,0,27.892-8.2V-.566ZM40.649-8.29a9.941,9.941,0,0,1,.58-3.526,7.74,7.74,0,0,1,1.546-2.575,6.5,6.5,0,0,1,2.245-1.58,6.8,6.8,0,0,1,2.676-.541,6.127,6.127,0,0,1,2.751.556,5.737,5.737,0,0,1,1.888,1.492V-16.1h4.906V-.566H52.335V-2.175A6.572,6.572,0,0,1,50.358-.7a5.967,5.967,0,0,1-2.632.541A6.724,6.724,0,0,1,45.08-.7a6.649,6.649,0,0,1-2.26-1.58,7.825,7.825,0,0,1-1.576-2.56A9.425,9.425,0,0,1,40.649-8.29Zm8.445,3.628a3.238,3.238,0,0,0,2.468-1.009,3.826,3.826,0,0,0,.952-2.736,3.556,3.556,0,0,0-.966-2.633,3.363,3.363,0,0,0-2.483-.966,3.193,3.193,0,0,0-2.5,1.024,3.87,3.87,0,0,0-.922,2.692,3.6,3.6,0,0,0,.966,2.662A3.363,3.363,0,0,0,49.094-4.662ZM65.627-22.1V-.566H60.721V-22.1Zm6.869,6,3.628,9.216L79.93-16.1h5.115L75.291,5.11H70.266l3.36-6.934L67.411-16.1Zm26.524,0L92.806-4.633h5.769V-.566H85.431l6.245-11.469H86.323V-16.1Zm.952,7.724a8.49,8.49,0,0,1,.565-3.057,7.766,7.766,0,0,1,1.635-2.6,7.955,7.955,0,0,1,2.6-1.8,8.528,8.528,0,0,1,3.464-.673,9.274,9.274,0,0,1,3.494.629,7.73,7.73,0,0,1,2.676,1.77,7.77,7.77,0,0,1,1.71,2.706,9.606,9.606,0,0,1,.595,3.438q0,.322-.015.585t-.045.5H104.67a3.212,3.212,0,0,0,1.279,2.121,4.106,4.106,0,0,0,2.438.717,5.369,5.369,0,0,0,2.007-.351,6.9,6.9,0,0,0,1.8-1.112L115.732-3.2a8.746,8.746,0,0,1-2.959,2.18,10.281,10.281,0,0,1-4.416.863,9.184,9.184,0,0,1-3.42-.614,7.748,7.748,0,0,1-2.646-1.712,7.72,7.72,0,0,1-1.71-2.6A8.7,8.7,0,0,1,99.972-8.378Zm4.877-1.9h7.018a2.945,2.945,0,0,0-1.234-1.887,4.047,4.047,0,0,0-2.334-.658,3.571,3.571,0,0,0-2.156.658A3.57,3.57,0,0,0,104.849-10.28Zm14.63,9.714V-16.1h4.49v1.814a3.612,3.612,0,0,1,1.5-1.682,4.054,4.054,0,0,1,2.007-.541,4.546,4.546,0,0,1,.981.088,3.689,3.689,0,0,1,.654.2l-.952,4.3a6.528,6.528,0,0,0-.7-.2,3.42,3.42,0,0,0-.788-.088,2.1,2.1,0,0,0-1.65.834,4.259,4.259,0,0,0-.7,2.736V-.566Zm12.073,0V-21.573h10.973v4.711h-6.007v2.984h6.007v4.564h-6.007V-.566Zm14.154,0V-16.1h4.906V-.566ZM145.2-20.2a2.6,2.6,0,0,1,.788-1.9,2.909,2.909,0,0,1,2.156-.79,3.123,3.123,0,0,1,1.234.234,2.984,2.984,0,0,1,.937.614,2.451,2.451,0,0,1,.58.892,3,3,0,0,1,.193,1.068,2.665,2.665,0,0,1-.788,1.96,2.909,2.909,0,0,1-2.156.79,2.814,2.814,0,0,1-2.171-.834A2.881,2.881,0,0,1,145.2-20.2ZM152.486-.566l5.739-8.1L152.961-16.1h5.531l2.706,4.3,2.736-4.3h5.5l-5.293,7.432L170-.566h-5.471l-3.33-5-3.271,5Z" transform="translate(110 58.89)" fill="#fff"/>
    </clipPath>
  </defs>
  <path id="Subtraction_2" data-name="Subtraction 2" d="M20,40a20.148,20.148,0,0,1-4.031-.406,19.89,19.89,0,0,1-7.151-3.009,20.058,20.058,0,0,1-7.246-8.8A19.9,19.9,0,0,1,.406,24.031a20.195,20.195,0,0,1,0-8.061A19.89,19.89,0,0,1,3.416,8.818a20.059,20.059,0,0,1,8.8-7.246A19.9,19.9,0,0,1,15.969.406a20.2,20.2,0,0,1,8.061,0,19.89,19.89,0,0,1,7.151,3.009,20.059,20.059,0,0,1,7.246,8.8,19.9,19.9,0,0,1,1.165,3.754,20.195,20.195,0,0,1,0,8.061,19.89,19.89,0,0,1-3.009,7.151,20.058,20.058,0,0,1-8.8,7.246,19.9,19.9,0,0,1-3.754,1.165A20.148,20.148,0,0,1,20,40ZM20,9.7A10.3,10.3,0,1,0,30.3,20,10.31,10.31,0,0,0,20,9.7ZM9.478,6.94a2.381,2.381,0,1,0,.93.188A2.373,2.373,0,0,0,9.478,6.94Z" transform="translate(0 0)" fill="#fff"/>
  <g id="Mask_Group_19" data-name="Mask Group 19" transform="translate(-60 -31)" clip-path="url(#clip-path)">
    <g id="Group_3112" data-name="Group 3112" transform="translate(21.323 -31.334)">
      <ellipse id="Ellipse_374" data-name="Ellipse 374" cx="12.19" cy="25.791" rx="12.19" ry="25.791" transform="translate(77.452 56.542) rotate(-34)" fill="#38d279"/>
      <ellipse id="Ellipse_375" data-name="Ellipse 375" cx="12.19" cy="25.791" rx="12.19" ry="25.791" transform="matrix(0.643, 0.766, -0.766, 0.643, 114.902, 72.389)" fill="#eac255"/>
      <ellipse id="Ellipse_376" data-name="Ellipse 376" cx="12.19" cy="25.791" rx="12.19" ry="25.791" transform="matrix(0.883, -0.469, 0.469, 0.883, -10.066, 69.147)" fill="#089baf"/>
      <ellipse id="Ellipse_377" data-name="Ellipse 377" cx="15.314" cy="25.791" rx="15.314" ry="25.791" transform="matrix(0.883, -0.469, 0.469, 0.883, 21.527, 14.118)" fill="#911ebc"/>
    </g>
  </g>
  <path id="Text-2" data-name="Text" d="M7.642-21.573H13.47L21.142-.566H15.819L14.511-4.457H6.542L5.234-.566H0ZM12.995-9.022l-2.438-7.315L8.088-9.022ZM22.986-.566V-16.1h4.906v1.58A9.357,9.357,0,0,1,30-15.985a5.813,5.813,0,0,1,2.587-.527,5.674,5.674,0,0,1,2.1.38,4.7,4.7,0,0,1,1.665,1.1,5.1,5.1,0,0,1,1.1,1.77,6.7,6.7,0,0,1,.4,2.4v10.3H32.947V-8.027a8.156,8.156,0,0,0-.431-2.984,1.788,1.788,0,0,0-1.858-1.053,2.429,2.429,0,0,0-2.022.951A4.7,4.7,0,0,0,27.892-8.2V-.566ZM40.649-8.29a9.941,9.941,0,0,1,.58-3.526,7.74,7.74,0,0,1,1.546-2.575,6.5,6.5,0,0,1,2.245-1.58,6.8,6.8,0,0,1,2.676-.541,6.127,6.127,0,0,1,2.751.556,5.737,5.737,0,0,1,1.888,1.492V-16.1h4.906V-.566H52.335V-2.175A6.572,6.572,0,0,1,50.358-.7a5.967,5.967,0,0,1-2.632.541A6.724,6.724,0,0,1,45.08-.7a6.649,6.649,0,0,1-2.26-1.58,7.825,7.825,0,0,1-1.576-2.56A9.425,9.425,0,0,1,40.649-8.29Zm8.445,3.628a3.238,3.238,0,0,0,2.468-1.009,3.826,3.826,0,0,0,.952-2.736,3.556,3.556,0,0,0-.966-2.633,3.363,3.363,0,0,0-2.483-.966,3.193,3.193,0,0,0-2.5,1.024,3.87,3.87,0,0,0-.922,2.692,3.6,3.6,0,0,0,.966,2.662A3.363,3.363,0,0,0,49.094-4.662ZM65.627-22.1V-.566H60.721V-22.1Zm6.869,6,3.628,9.216L79.93-16.1h5.115L75.291,5.11H70.266l3.36-6.934L67.411-16.1Zm26.524,0L92.806-4.633h5.769V-.566H85.431l6.245-11.469H86.323V-16.1Zm.952,7.724a8.49,8.49,0,0,1,.565-3.057,7.766,7.766,0,0,1,1.635-2.6,7.955,7.955,0,0,1,2.6-1.8,8.528,8.528,0,0,1,3.464-.673,9.274,9.274,0,0,1,3.494.629,7.73,7.73,0,0,1,2.676,1.77,7.77,7.77,0,0,1,1.71,2.706,9.606,9.606,0,0,1,.595,3.438q0,.322-.015.585t-.045.5H104.67a3.212,3.212,0,0,0,1.279,2.121,4.106,4.106,0,0,0,2.438.717,5.369,5.369,0,0,0,2.007-.351,6.9,6.9,0,0,0,1.8-1.112L115.732-3.2a8.746,8.746,0,0,1-2.959,2.18,10.281,10.281,0,0,1-4.416.863,9.184,9.184,0,0,1-3.42-.614,7.748,7.748,0,0,1-2.646-1.712,7.72,7.72,0,0,1-1.71-2.6A8.7,8.7,0,0,1,99.972-8.378Zm4.877-1.9h7.018a2.945,2.945,0,0,0-1.234-1.887,4.047,4.047,0,0,0-2.334-.658,3.571,3.571,0,0,0-2.156.658A3.57,3.57,0,0,0,104.849-10.28Zm14.63,9.714V-16.1h4.49v1.814a3.612,3.612,0,0,1,1.5-1.682,4.054,4.054,0,0,1,2.007-.541,4.546,4.546,0,0,1,.981.088,3.689,3.689,0,0,1,.654.2l-.952,4.3a6.528,6.528,0,0,0-.7-.2,3.42,3.42,0,0,0-.788-.088,2.1,2.1,0,0,0-1.65.834,4.259,4.259,0,0,0-.7,2.736V-.566Zm12.073,0V-21.573h10.973v4.711h-6.007v2.984h6.007v4.564h-6.007V-.566Zm14.154,0V-16.1h4.906V-.566ZM145.2-20.2a2.6,2.6,0,0,1,.788-1.9,2.909,2.909,0,0,1,2.156-.79,3.123,3.123,0,0,1,1.234.234,2.984,2.984,0,0,1,.937.614,2.451,2.451,0,0,1,.58.892,3,3,0,0,1,.193,1.068,2.665,2.665,0,0,1-.788,1.96,2.909,2.909,0,0,1-2.156.79,2.814,2.814,0,0,1-2.171-.834A2.881,2.881,0,0,1,145.2-20.2ZM152.486-.566l5.739-8.1L152.961-16.1h5.531l2.706,4.3,2.736-4.3h5.5l-5.293,7.432L170-.566h-5.471l-3.33-5-3.271,5Z" transform="translate(50 27.89)" fill="#fff"/>
  <g id="Mask_Group_18" data-name="Mask Group 18" transform="translate(-60 -31)" clip-path="url(#clip-path-2)">
    <rect id="Rectangle_1560" data-name="Rectangle 1560" width="1" height="35" transform="translate(108 33)" fill="#38d279"/>
  </g>
</svg>
