<svg id="Group_2965" data-name="Group 2965" xmlns="http://www.w3.org/2000/svg" width="50" height="50" viewBox="0 0 50 50">
  <circle id="Ellipse_copy_7" data-name="Ellipse copy 7" cx="25" cy="25" r="25" fill="#fff"/>
  <path id="Path_2321" data-name="Path 2321" d="M1.507-14.04q0-1.915,2.111-1.915T5.73-14.04A1.878,1.878,0,0,1,5.2-12.62a2.2,2.2,0,0,1-1.583.508Q1.507-12.112,1.507-14.04ZM5.552,4.045H1.673v-14.37H5.552Zm15.955,0H17.628V-4.348a4.065,4.065,0,0,0-.547-2.333,1.981,1.981,0,0,0-1.742-.778,2.61,2.61,0,0,0-2.353,1.1,6.876,6.876,0,0,0-.725,3.644V4.045H8.382v-14.37h2.963l.521,1.838h.216a4.113,4.113,0,0,1,1.787-1.575,6.031,6.031,0,0,1,2.588-.533,4.943,4.943,0,0,1,3.765,1.356,5.478,5.478,0,0,1,1.285,3.914Z" transform="translate(13.493 30.955)" fill="#1753ae"/>
</svg>
