<svg xmlns="http://www.w3.org/2000/svg" width="20" height="16" viewBox="0 0 20 16">
  <path id="Forma_1_copy_6" data-name="Forma 1 copy 6" d="M954.083,9781.13a8.278,8.278,0,0,1-2.607.984,4.117,4.117,0,0,0-7.1,2.763,4,4,0,0,0,.106.919,11.706,11.706,0,0,1-8.456-4.221,3.959,3.959,0,0,0-.555,2.029,4.019,4.019,0,0,0,1.825,3.363,4.117,4.117,0,0,1-1.858-.507v.052a4.062,4.062,0,0,0,3.29,3.962,4.223,4.223,0,0,1-1.081.142,4.287,4.287,0,0,1-.773-.073,4.1,4.1,0,0,0,3.832,2.807,8.314,8.314,0,0,1-5.1,1.728,8.747,8.747,0,0,1-.979-.054,11.759,11.759,0,0,0,6.289,1.813,11.5,11.5,0,0,0,11.673-11.493l-.013-.525a8.194,8.194,0,0,0,2.051-2.088,8.267,8.267,0,0,1-2.356.637A4.088,4.088,0,0,0,954.083,9781.13Z" transform="translate(-934.635 -9780.837)" fill="#1ad6ca"/>
</svg>
