<svg xmlns="http://www.w3.org/2000/svg" width="253" height="220" viewBox="0 0 253 220">
  <g id="Group_3116" data-name="Group 3116" transform="translate(0 0)">
    <g id="Group_3121" data-name="Group 3121">
      <path id="Green" d="M2723.512-997c-4.027,0-3.639-4.689-3.639-4.689l-4.88-28.755a11.008,11.008,0,0,1,4.648-2.537c2.013,3.92,7.9,35.981,7.9,35.981Zm-45.692-63.97s.1-28.731.146-31.487-.682-3.047-2.047-3.337-2.094-.436-6.041-1.306-2.973-2.516-3.021-3.58-.2-5.32-.263-7.317c1.492-1.367,11.226-1.05,11.226-1.05l3.41,9.626,2.679-10.218a62.231,62.231,0,0,1,6.968-1.88c5.554-1.311,4.3,5.531,4.3,8.429s-.8,3.1-1.128,3.358-4.045,2.3-6.168,3.358-1.944,2.3-1.944,2.3L2687-1061l-4.109,7.872Zm-102.34-1.349,1.6-5.669,6.211-5.171,19.135-14.719,4.709,4.973-29.955,25.361Zm-33.569-103.4-.073-29.758-7.839-.5v-1.3L2551.786-1215h.939l16.766,17.725v1.081h-6.6l-1.306.793v25.867l-.291,3.819Z" transform="translate(-2522.237 1215.835)" fill="#38d279" stroke="rgba(0,0,0,0)" stroke-width="1"/>
      <path id="White" d="M2731.243-998.9c-6.137.781-17.912-3.592-20.319-4.723-2.521-1.185-13.663-7.243-20.3-7.243-4.577,0-10.28,3.227-14.923,6.914,3.316-8.823,16.781-10.535,22.285-8.559,6.953,2.429,22.647,11.247,33.15,13.3a9.393,9.393,0,0,1-.319-1.512c-.848-6.456-3.769-23.392-4.612-28.246q-.847.276-1.755.533a99.874,99.874,0,0,1-20.229,2.561c-6.964.066-9.949-.131-10.911-4.082s-1.958-6.17-6.119-8.221c4.584.357,7.21,3.86,8.394,9.254.015.095.089.175.313.242-.317-2.815-1.344-17.966-1.527-20.057-.2-2.272-.995-22.124-1.144-24.149s-.945-22.667-1.094-24.2-2.04-7.8-2.388-9.482-8.108-.642-11.391-.592c2.138-2.518,11.64-2.864,12.685-2.321.149.4,1.841,4.839,1.841,4.839s.348-1.234,1.393-4.246c.61-1.76,3.955-2.391,6.759-2.473a95.324,95.324,0,0,1-1.255-14.6c-.264-10.535-.464-13.432-.464-13.828-.132-1.843.663-3.094,2.454-4.148s3.847-2.436,3.847-5.135-2.786-4.346-7.627-3.688c.2-.724,1.725-.789,1.725-.789s-1.393-10.206-2.122-13.7-1.792-2.3-4.113-1.91-10.015,1.383-16.316.067-10.944-3.951-13.265-8.23-.132-6.124,2.388-6.256c0-3.16,5.108-13.036,15.719-5.6,4.443-3.1,10.346-4.543,15.056,4.74,3.382-2.173,9.484-3.16,11.341,3.753,2.786-.4,3.848-.724,2.72,4.873s-4.576,23.506-4.576,23.506c1.128,1.712,2.521,6.452-1.857,9.482-1.327.922-3.051.658-2.653,7.243.374,6.2,1.16,19.92-.519,24.2a8.015,8.015,0,0,1,3.5.457c-1.244.4-6.516,1.777-8.606,2.667-.149,2.024-2.537,9.086-2.736,11.408s2.586,53.185,2.885,58.766a87.485,87.485,0,0,0,1.071,9.575c.927.04,2.263.059,4.186.059,1.845,0,3.841.03,6.147-.085.152-3.717.848-20.917.965-26.718.133-6.519.332-23.045.4-36.873s-.066-13.367,0-15.473.017-4.362,4.2-3.375,2.984.592,7.958,1.679a89.812,89.812,0,0,1,21.639,8.247c8.009,4.345,14.889,9.382,24.375,20.1,10.745,12.741,12.072,17.861,14.592,23.458S2787-1040.953,2787-1034.3a31.97,31.97,0,0,1-10.014,22.453c-7.23,6.914-14.26,12.182-30.444,15.8a56.265,56.265,0,0,1-8.472,1.047C2734.873-995,2732.308-995.879,2731.243-998.9Zm-.554-12.69c.73,4.345,1.525,9.482,1.858,11.128s.232,3.72,4.261,3.67a54.6,54.6,0,0,0,19.5-3.654c8.457-3.26,18.406-9.728,22.932-15.852s7.163-10.668,6.268-20.1a79.593,79.593,0,0,0-7.412-26.568c-3.73-7.654-16.068-23.506-26.215-30.766a86.314,86.314,0,0,0-34.672-15.21,49.192,49.192,0,0,0-6.517-.741s.094,72.2-1.3,81.067a69.665,69.665,0,0,0,16.585-3.457c12.052-3.885,13.134-9.151,13.391-16.872s-4.945-18.917-9.167-21.627c4.687.818,11.235,11.375,11.633,22.438,0,5.95-1.208,13.971-14.3,18.707C2728.19-1025.763,2730.09-1015.159,2730.689-1011.587Zm-71.532-14.279c.3-8.9.7-33.393.7-35.664s.6-7.506.6-7.506c1.592,8.1,2.388,23.309,1.89,32.692s-1.591,34.272-2.786,39.408C2658.162-1005.035,2658.858-1016.969,2659.157-1025.866Zm14.746,12.619c.618-2.309,4.056-4.916,7.687-5.3s2.9,1.189,0,2.454a46.941,46.941,0,0,0-6.064,3.374,3.149,3.149,0,0,1-1.335.655C2673.86-1012.063,2673.661-1012.338,2673.9-1013.247Zm-1.614-7.328c1.227-1.646,4.908-4.411,8.854-3.489s2.321,1.448.166,2.139c-.1,0-4.709,1.35-4.709,1.35a20.547,20.547,0,0,1-4.062.959C2671.942-1019.616,2671.768-1019.874,2672.29-1020.575Zm-71.135-12.115c-7.461-7.21-11.54-17.581-12.734-21.63s-4.775-8.2,1.194-14.717,25.137-20.247,25.137-20.247,8.092,10.4,15.852,21.794c13.2-29.827,37.01-38.913,41.819-40.791s5.106,1.778,5.14,3.359.547,12.848.8,22.749c.7,20.641.4,34.371.4,34.371l-3.781-58.668s-8.456,1.482-20.4,11.457-20.1,26.075-23.778,33.976c-2.587-5.729-16.714-24.4-16.714-24.4s-13.63,10.272-16.017,12.247-10.49,6.847-9.154,13.531,8.457,29.137,32.235,34.668c19.1,2.074,32.632-11.359,37.706-14.717a52.706,52.706,0,0,1-34.721,17.185q-.858.064-1.708.064C2615.094-1022.454,2608.081-1026,2601.155-1032.69Zm72.1,5.991c.994-1.712,3.714-3.39,6.765-3.456s2.951,1.283,1.658,1.843l-4.377,1.613a8.062,8.062,0,0,1-3.476,1.235C2673.065-1025.463,2672.764-1025.859,2673.251-1026.7Zm-85.958-52.379s-9.021-6.386-11.143-7.506-1.591-2.174,3.184-1.185,7.362,4.741,8.356,5.86c.756.85,2.841,3.93,1.746,3.93A5.082,5.082,0,0,1,2587.293-1079.078Zm-25.071-16.231c.266-2.206,1.228-1.876,1.731-.888a10.719,10.719,0,0,0,1.851,2.37,15.053,15.053,0,0,0,2.454,1.515c1.989,1.086,0,1.811-.929,1.811C2563.88-1090.5,2561.957-1093.1,2562.222-1095.308Zm39.265-2.667c-3.582-5.794-5.639-7.77-10.546-8.428s-6.433,4.806-7.561,7.9c-1.393-1.844-.929-11.129,8.357-10.6s14.127,13.5,14.061,16.461C2603.808-1093.827,2603.476-1095.407,2601.487-1097.975Zm-37.972-5.516c0-1.134.63-4.459,2.553-4.887a16.21,16.21,0,0,0-.066,3.028c.033,2.667,1.127,3.82,3.018,5.5s1.459,2.239.132,2.239S2563.515-1099.724,2563.515-1103.491Zm-29.167,2.306s-.348-63.949-.348-66.718,1.792-2.566,4.577-2.566h13.98v-23.407h-4.927c-3.68,0-3.63-2.224-2.388-3.31,0,0,15.323-15.062,16.615-16.494s2.937-1.778,3.83-.642c0,0,14.773,15.557,16.019,16.989s.994,3.158-1.691,3.158h-5.821v23.656h17.76c2.236,0,1.938,1.037,1.938,2.023s-.894,44.71-.894,44.71l-1.342-44.51-17.512.2s.051,1.532.051,2.619a1.7,1.7,0,0,1-1.939,1.728h-16.866c-2.287,0-2.933-1.087-2.933-2.273v-2.074s-11.988.1-13.283.1-2.635-.2-2.686,1.182c0,0-.3,60.151-.348,63.163s.5,3.21,1.594,3.21,15.916.3,19.946.445c-2.685.787-19,1.037-20.693,1.183-.219.019-.425.031-.618.031C2535.064-1098.785,2534.348-1099.292,2534.348-1101.185Zm20.006-92.42v27.757h17.923v-27.066c0-.629.021-3.146,2.114-3.146h6.214l-16.653-17.058-17.458,17.373s4.5-.062,5.326-.062c.187,0,.42-.02.668-.02C2553.332-1195.826,2554.354-1195.6,2554.354-1193.605Zm19.716,90.059c-2.008-.333-4.685-2.949-4.685-6.478.042-1.869.376-5.15,3.221-5.4a14.059,14.059,0,0,0-.712,4.4,8.876,8.876,0,0,0,2.845,5.731c.7.736,1.212,1.8-.082,1.8A3.648,3.648,0,0,1,2574.07-1103.546Zm108.218-12.059s-.3-3.456-.249-4.395.347-3.308,1.194-3.21,1.94,4.1,1.84,6.469-.746,5.357-2.039,5.37C2682.686-1111.37,2682.52-1112.254,2682.288-1115.6Zm-106.851-11.95c-3.234-2.964-5.621-2.074-6.019-1.383-1.749,3.206,2.537,7.9,3.83,9.136-6.467-1.185-7.114-9.235-5.124-11.457s7.562-.1,10.48,3.127,7.362,8.758,9.219,13.3C2584.142-1116.181,2578.671-1124.592,2575.437-1127.555ZM2543.6-1116.2a.743.743,0,0,1-.746-.741.743.743,0,0,1,.746-.741h7.933a.743.743,0,0,1,.746.741.743.743,0,0,1-.746.741Zm118.408-23.391c-1.692-10.668-1.094-25.483,2.619-33.153,0,0-.8,19.753-.7,25.581s.6,18.865,13.928,20.247c1.89.2,7.13.691,10.712-2.009-.033,1.713-2.952,4.181-11.243,4.181C2672.09-1124.741,2663.7-1128.922,2662.009-1139.588ZM2543.6-1126.864a.744.744,0,0,1-.746-.741.743.743,0,0,1,.746-.741h7.933a.743.743,0,0,1,.746.741.744.744,0,0,1-.746.741Zm126.666-12.033a8.713,8.713,0,0,0,3.748,1.152,5.381,5.381,0,0,0,3.382-2.107c.962-1.185,1.659-1.777,2.52-.922s.033,1.876-.365,2.4-2.487,2.732-4.71,2.732S2671.792-1136.494,2670.267-1138.9Zm-126.666,2.848a.743.743,0,0,1-.746-.741.743.743,0,0,1,.746-.741h18.627a.743.743,0,0,1,.746.741.743.743,0,0,1-.746.741Zm127.66-11.671c1.161-2.9,3.084-6.189,2.72-2.5-.025.424-.058.82-.1,1.176a10.135,10.135,0,0,1-.6,2.441c-.137.374-.187.811.161,1.057.7.494,2.752,1.679.2,1.811q-.186.01-.362.01C2671-1143.727,2670.157-1144.964,2671.261-1147.721Zm-127.66,1.646a.743.743,0,0,1-.746-.741.743.743,0,0,1,.746-.741h33.129a.744.744,0,0,1,.747.741.744.744,0,0,1-.747.741Zm138.769-3.893c-.614-.2-.832-1.22-.485-2.283s1.126-1.766,1.741-1.569.832,1.22.485,2.283c-.307.943-.954,1.6-1.525,1.6A.7.7,0,0,1,2682.37-1149.968Zm-12.218-1.274c-.643-.062-1.074-1.015-.965-2.128s.721-1.964,1.364-1.9,1.074,1.015.965,2.128c-.107,1.073-.679,1.9-1.3,1.9C2670.2-1151.238,2670.175-1151.239,2670.152-1151.241Zm18.2-6.044a6.873,6.873,0,0,0-4.019-1.1c-1.219.106-2.619.249-2.619-1.246-.215-1.5,2.045-2.138,4.772-1.5s5.454.784,4.593,3.242a1.728,1.728,0,0,1-1.548,1.006A2.069,2.069,0,0,1,2688.352-1157.286Zm-144.751-.048a.744.744,0,0,1-.746-.741.743.743,0,0,1,.746-.741h40.99a.743.743,0,0,1,.746.741.744.744,0,0,1-.746.741Zm126.2-3.863c-2,.039-3.495.975-4.123-.468-.472-.545.266-2.611,5.1-2.611,1.614,0,4.061-.04,4.061,2.027,0,.741-.406,1.4-1.544,1.4A18.74,18.74,0,0,0,2669.8-1161.2Z" transform="translate(-2534 1215)" fill="#fff"/>
    </g>
  </g>
</svg>
