<svg xmlns="http://www.w3.org/2000/svg" width="253" height="190" viewBox="0 0 253 190">
  <g id="Group_3118" data-name="Group 3118" transform="translate(0 0)">
    <g id="Group_3122" data-name="Group 3122">
      <path id="Green" d="M2030.741-1427.546c-.135-2.17,9.832-3.2,12.029-3.448s2.815.589,2.815.974-.637.953-1.35,1.156-8.482,1.623-11.008,1.967a7.141,7.141,0,0,1-.96.073C2030.713-1426.824,2030.741-1427.546,2030.741-1427.546Zm-14.362-5.516s-.56-.851,1.7-1.5,7.769-2.008,11.335-2.616,10.14-1.905,10.468-.445c.077.466-.983,1.176-4.762,1.947s-11.837,2.23-14.227,2.615a23.078,23.078,0,0,1-3.29.361C2016.919-1432.7,2016.475-1432.8,2016.379-1433.062Zm6.763-12.9c0-1.341,2.175-1.4,6-2.051s9.787-1.42,12.413-1.715,4.032-.217,4.013.927-6.376,1.834-8.288,2.071-3.544.591-9.038,1.222a25.856,25.856,0,0,1-2.89.2C2022.905-1445.308,2023.142-1445.959,2023.142-1445.959Zm60.988-2.067c-1.353-.05-.411-3.023.8-6.1s3.623-5.074,5.337-5.074,3.116,1.823,3.815,3.321,1.087,2.515,1.354,2.565c.844.051,2.028-2.336,2.39-3.454s.869-2.616,1.835-2.413-.193,3.353-.58,4.547-1.618,3.836-3.792,3.836-2.584-3.4-3.67-4.8c-.483-.863-.869-1.193-1.353-1.193-1.28,0-2.511,1.956-3.115,2.972a30.889,30.889,0,0,0-2.149,5c-.179.7-.51.815-.708.815A.453.453,0,0,1,2084.129-1448.026ZM1940-1477.54s14.876-21.037,15.978-22.544,1.653-2.26,2.589-1.872,8.108,3.532,8.108,3.532,10.762-17.059,12.505-19.775,2.273-2.227,3.107-1.351,3.638,5.262,6.214,8.69c3.334-2.073,13.111-12.2,14.866-13.791s2.262-.239,2.186,1.595-2.186,43.492-2.186,43.492l-1.24,1.01L1940-1474.121Zm68.681-5.483c.045-1.136,2.508-1.475,8.758-2.03s8.466-.589,8.441.221-1.58,1.757-9.719,2.479c-1.675.149-2.978.208-3.99.208C2008.267-1482.145,2008.681-1483.023,2008.681-1483.023Zm23.62-.884c.081-1.134,2.642-1.4,9.132-1.779s8.787-.348,8.735.462-1.69,1.712-10.141,2.2c-1.279.074-2.347.105-3.24.105C2031.779-1482.917,2032.3-1483.906,2032.3-1483.906Zm54.07-27.389c0-8.675,6.5-15.705,14.521-15.705s14.521,7.03,14.521,15.705-6.5,15.707-14.521,15.707S2086.371-1502.621,2086.371-1511.3Zm2.35.085c-.206,3.694,2.522,13.561,12.893,13.605s14.216-13,10.746-19.733c-3.307,2.521-8.969,6.561-8.969,6.561-1.736,1.132-2.689.957-2.523-1.737s.745-12.257.745-12.257C2097.689-1524.772,2089.466-1522.73,2088.721-1511.211Zm31.058,9.7c0-.575,2.186-1.46,5.549-1.592s6.476-.045,6.56.8-1.22,1.592-5.256,1.68c-1.444.032-2.721.086-3.77.086C2120.979-1500.543,2119.833-1500.718,2119.779-1501.513Zm-108-5.53c.115-1.128,2.221-1.248,7.543-1.248s7.2.16,7.122.966-1.454,1.611-8.385,1.611S2011.775-1507.043,2011.775-1507.043Zm21.252-.949c.122-1.13,2.583-1.279,8.8-1.35s8.414.064,8.333.871-1.683,1.63-9.783,1.723q-.411,0-.792,0C2032.329-1506.743,2033.026-1507.991,2033.026-1507.991Zm88.056-3.182c0-.454.858-1.154,2.178-1.259s2.541-.035,2.574.629-.479,1.259-2.063,1.329c-.567.025-1.068.068-1.479.068C2121.553-1510.406,2121.1-1510.544,2121.082-1511.173Z" transform="translate(-1922.303 1538.49)" fill="#eac255"/>
      <path id="White" d="M2084.891-1338.512a52.845,52.845,0,0,1,2.654-14.034c5.741-16.812,16.119-29.129,31.85-36.251a2.024,2.024,0,0,0,.91-1.375,40.672,40.672,0,0,0,.361-4.633,1.641,1.641,0,0,1,1.548-1.809c1.539-.263,3.073-.56,4.609-.843.256-.047.726-.084.731-.158a34.546,34.546,0,0,0,.147-3.66,1.164,1.164,0,0,0-.7-.851,7.236,7.236,0,0,1-5.2-4.531,23.34,23.34,0,0,1-1.85-8.612,1.317,1.317,0,0,0-1.141-1.466c-3.244-.876-3.376-.49-2.312-4.352a96.035,96.035,0,0,1,6.193-15.615c.179-.377.743-.552,1.129-.82.093.5.387,1.077.248,1.495-1.726,5.2-3.516,10.379-5.285,15.564-.1.293-.155.6-.262,1.028a13.259,13.259,0,0,0,1.877.566c1.4.208,1.74,1.064,1.871,2.45a49.178,49.178,0,0,0,1.192,7.653c.671,2.6,2.186,4.522,5.062,4.79.368.034.9.912.949,1.441.131,1.44.045,2.9.045,4.563l7.34-.993v-5.2c0-.856.257-1.443,1.221-1.29l.32.312c.2,1.94.409,3.881.625,5.927,1.773-.094,3.573-.2,5.375-.277,1.126-.049,2.255-.083,3.381-.077,1.812.01,2.165.442,1.958,2.3-.046.408-.108.815-.137,1.223-.064.907-.112,1.815-.178,2.926,2.126.34,4.243.736,6.374,1.01,8.88,1.138,16.026,5.71,21.887,12.551,7.867,9.183,12.486,20.157,15.287,32.046.1.441-.142,1.331-.433,1.45-.813.333-.929-.462-1.09-1.094-2.674-10.515-6.922-20.234-13.486-28.706-6.073-7.837-13.821-12.751-23.438-14.147a44.672,44.672,0,0,0-12.321.149c-5.461.719-10.957,1.188-16.4,2.052-7.466,1.186-13.806,5.01-19.433,10.13A60.253,60.253,0,0,0,2087-1342.859c-.263,1.475-.318,2.992-.591,4.464a4.646,4.646,0,0,1-.858,1.4C2085.321-1337.505,2084.863-1338.025,2084.891-1338.512Zm38.8-55.865a1.015,1.015,0,0,0-.684.629c-.163,1.419-.235,2.85-.348,4.419,8.123-2.125,16.194-2.658,24.3-3.129.137-1.584.258-2.985.377-4.36-.218-.158-.252-.2-.286-.2A120.583,120.583,0,0,0,2123.693-1394.377Zm-4.98,54.189c-.2-1.852-.269-3.718-.387-5.579l.089-.012c.087-1.409.118-2.828.3-4.225.056-.432.517-.807.792-1.209.308.386.874.766.881,1.158q.092,4.964-.028,9.931c-.008.355-.548.7-.842,1.043C2119.236-1339.448,2118.755-1339.793,2118.713-1340.188Zm55.864-5.776a5.734,5.734,0,0,1-.606-1.64c-.513-2.438-1.033-4.877-1.427-7.337-.079-.493.384-1.082.6-1.626.4.41,1.029.752,1.167,1.244.742,2.65,1.362,5.337,2.024,8.012l-.21.072a4.7,4.7,0,0,1-.147,1.068c-.1.264-.359.627-.562.637h-.028A1.065,1.065,0,0,1,2174.576-1345.964Zm-67.526-38.194a1.911,1.911,0,0,1-1.048-.161c-2.258-1.439-4.437-3.014-6.7-4.444a2.733,2.733,0,0,0-1.89-.35,11.478,11.478,0,0,1-13.751-8.549c-.174-.747-.222-1.526-.329-2.29l-.24-.167c.377-.726.739-2.057,1.133-2.067,1.283-.035.728,1.251.806,2,.609,5.855,6.588,10.119,12.177,8.531a3,3,0,0,1,3.081.652c2.167,1.815,4.426,3.512,6.59,5.332.376.317.47,1.006.695,1.523A5.046,5.046,0,0,0,2107.05-1384.159Zm-167.029-11.124q.084-48.458-.019-96.917-.009-14.237.011-28.473c0-4.231,2.077-6.4,6.115-6.324q30.706.579,61.411,1.186,30.771.625,61.541,1.251c3.725.075,5.673,2.115,5.674,6.048q.012,35.317,0,70.635a2.409,2.409,0,0,1-.082,1.073,1.5,1.5,0,0,1-.9.747c-.231.031-.657-.418-.757-.735a5.1,5.1,0,0,1-.086-1.49q0-34.771.007-69.54c0-1.526-.119-3.021-1.48-3.842a5.352,5.352,0,0,0-2.582-.678q-33.309-.638-66.618-1.2-27.909-.5-55.818-1c-3.118-.055-4.162,1.041-4.162,4.288q0,62.218,0,124.433c0,3.547,1.22,4.659,4.6,4.135q22.7-3.528,45.391-7.08,18.324-2.863,36.652-5.7c.426-.065.921.374,1.383.577-.382.335-.73.9-1.153.97-6.412,1.112-12.835,2.164-19.256,3.219q-17.982,2.958-35.963,5.9c-9.077,1.49-18.157,2.958-27.228,4.478a6.713,6.713,0,0,1-1.108.095C1942.147-1389.229,1940.015-1392.111,1940.021-1395.283Zm176.689,3.938c-2.879-1.473-5.712-3.045-8.573-4.559a2,2,0,0,1-1.059-2.448,33.761,33.761,0,0,0-.482-12.889,4.16,4.16,0,0,1,.289-1.537c.416.35,1.032.611,1.215,1.065a23.832,23.832,0,0,1,1.738,9.183,11.844,11.844,0,0,1-.159,2.72c-.46,1.573.221,2.237,1.428,2.927,2.2,1.259,4.333,2.671,6.436,4.112.392.269.516.974.763,1.478a5.066,5.066,0,0,0-.527.03c-.167.016-.335.031-.5.031A1.252,1.252,0,0,1,2116.71-1391.345Zm-23.116-6.188c.087-1.542.281-3.077.436-4.614a20.431,20.431,0,0,0-3.785-12c-.256-.365-.155-1.009-.219-1.523.456.118,1.049.084,1.35.378,4.707,4.6,5.679,10.28,4.193,16.624a5.335,5.335,0,0,1-.517,1.535c-.192.317-.63.469-.958.695C2093.916-1396.8,2093.573-1397.179,2093.594-1397.534Zm-66.6-26.5c-2.542-14.67,6.719-28.34,20.728-30.595,12.714-2.047,25.091,7.352,27.664,20.981a26.859,26.859,0,0,1-1.572,15.52c-.119.288-.222.582-.418,1.1,2.928,1.72,5.758,3.388,8.594,5.043a27.024,27.024,0,0,0,3.443,1.918,6,6,0,0,1,4.013,4.973c.069.454.166,1.183-.046,1.34a1.554,1.554,0,0,1-1.384.108q-5-2.462-9.94-5.054-3.2-1.675-6.323-3.5a1.127,1.127,0,0,0-1.731.329,23.707,23.707,0,0,1-17.224,8.965c-.524.035-1.048.052-1.567.052C2039.44-1402.86,2029.118-1411.762,2026.992-1424.037Zm3.65-5.09c-.014,12.2,9.4,22.153,20.957,22.175,11.717.021,21.19-9.957,21.233-22.364.042-12.126-9.273-21.828-20.988-21.861h-.059C2040.1-1451.178,2030.656-1441.334,2030.641-1429.127Zm69.121,25.376a1.18,1.18,0,0,1-.846-.623c-.969-2.757-1.892-5.532-2.786-8.317a1.092,1.092,0,0,1,.194-.934.879.879,0,0,1,.9-.026,9.8,9.8,0,0,1,2.1,2.519,40.914,40.914,0,0,1,1.553,4.846l-.229.1a12.176,12.176,0,0,1-.256,1.747c-.08.28-.42.69-.614.69Zm-143-1.381q.155-18.679.419-37.358a4.447,4.447,0,0,1,4.216-4.524c9.778-.667,19.558-1.3,29.336-1.963q17.2-1.166,34.394-2.358c2.164-.148,4.328-.3,6.494-.363.409-.011.829.411,1.245.634-.387.323-.751.888-1.165.932-2.749.292-5.508.472-8.42.7v8.9a15.879,15.879,0,0,1,2.232.031c.389.055.738.427,1.105.656-.349.32-.654.814-1.056.926a16.255,16.255,0,0,1-2.492.317c-.263,4.143-.492,8.188-.782,12.227q-.46,6.41-1.046,12.81c-.041.444-.547.84-.838,1.258-.237-.461-.691-.928-.678-1.381.176-6.2.408-12.4.649-18.593.077-1.953.222-3.9.348-6.053l-51.016,3.839c-.072,1.282-.143,2.542-.215,3.8q-.689,12.153-1.382,24.305a2.809,2.809,0,0,1-.173,1.068c-.139.275-.481.616-.722.606a1.028,1.028,0,0,1-.691-.646,4.21,4.21,0,0,1-.077-1.354q.423-12.786.854-25.572c.022-.63,0-1.262,0-2.06-2.534.155-4.952.323-7.373.441-.879.043-.777.695-.8,1.26-.129,3.875-.239,7.75-.359,11.625-.165,5.288-.315,10.578-.531,15.863-.018.456-.475.893-.729,1.338C1957.254-1404.256,1956.758-1404.7,1956.761-1405.131Zm4.74-39.383c-.7.112-1.777.916-1.858,1.524-.32,2.444-.319,4.936-.442,7.536,2.7-.292,5.111-.528,7.514-.842a1.178,1.178,0,0,0,.823-.745c.255-2.617.426-5.243.633-8.033C1965.806-1444.9,1963.633-1444.855,1961.5-1444.514Zm8.338-.7v8.664c2.227-.161,4.383-.311,6.538-.474q13.683-1.034,27.367-2.072c5.361-.4,10.726-.753,16.087-1.173.378-.03,1.017-.4,1.049-.673.326-2.732.549-5.478.814-8.359Zm133.237,39.941q-.645-3.537-1.166-7.1c-.042-.284.182-.841.36-.88a1.191,1.191,0,0,1,.994.305c1.328,1.474,1.61,3.353,1.739,5.555a17.361,17.361,0,0,1-.451,2.12,1.136,1.136,0,0,1-.805.637h-.019C2103.516-1404.636,2103.123-1405.019,2103.076-1405.276Zm35.326.128-.319-.312a16.992,16.992,0,0,1-4.778-10.069c-.208-2.008-.078-2.268,1.738-2.755.042-.011.086-.016.127-.028,1.851-.542,3.1-2.021,2.952-3.488a3.589,3.589,0,0,0-3.791-3.031c-2.382.259-2.31-.526-2.9-2.233-.66-1.911-1.1-3.908-1.686-6.079-1.525.207-3.138.472-4.762.616a4.227,4.227,0,0,1-1.446-.419c.256-.483.4-1.143.789-1.418a5.65,5.65,0,0,1,5.593-.57c-.23-.475-.347-1.212-.709-1.387-3.74-1.8-6.228-4.941-8.081-8.611a65.534,65.534,0,0,1-3.641-8.866,2.678,2.678,0,0,1,1.616-3.749c.341-1.4.286-2.958.984-3.578.771-.685,2.23-.511,3.538-.738,1.1-2.836,3.366-3.645,5.562-1.352,3.223,3.365,7.218,4.71,11.42,5.782,1.891.481,3.778,1.012,5.622,1.664,6.457,2.281,9.54,8.146,7.064,14.85,4.533,3,5.62,9.231,3.051,15.012a33.134,33.134,0,0,1-3.693,6.246c-2.7,3.624-5.564,7.115-8.44,10.587-1.076,1.3-2.382,2.386-3.572,3.581a1.853,1.853,0,0,1-1.3.64A1.781,1.781,0,0,1,2138.4-1405.148Zm-12.77-5.841c-.4-.162-.659-.7-.983-1.066a3.783,3.783,0,0,1,1.108-.7c1.662-.336,2.309-1.745,3.122-3.026a4.712,4.712,0,0,1,1.1-.923l.606.922c-.038,2.826-1.989,4.989-3.955,4.989A2.629,2.629,0,0,1,2125.632-1410.989Zm-29.49-9.732c-.052-6.385-.176-12.568-.176-18.955v-.138c0-.158,0-.317,0-.065q0-9.374,0-18.748c0-4.137,2.112-6.544,6.061-6.809q18.56-1.247,37.123-2.451c3.375-.223,6.749-.461,10.121-.734a6.13,6.13,0,0,1,4.993,1.424,5.153,5.153,0,0,1,1.859,3.775q.038,4.925-.059,9.85c-.008.348-.486.686-.746,1.028-.256-.352-.721-.7-.733-1.057-.086-2.734-.151-5.474-.09-8.209.066-2.894-1.629-5-4.688-4.744-7.907.666-15.826,1.188-23.739,1.774q-12,.887-24,1.79c-2.516.19-3.757,1.583-3.77,4.231q-.088,18.474-.153,36.948a10.6,10.6,0,0,0,.236,2.847,3.808,3.808,0,0,0,4.4,2.533q4.764-.688,9.524-1.4c.623-.094,1.355-.266,1.384.64.01.32-.673.882-1.1.966-3.237.626-6.482,1.225-9.741,1.706a7.029,7.029,0,0,1-1.027.077C2098.514-1414.447,2096.172-1416.948,2096.141-1420.721Zm-116.049,5.762a2,2,0,0,1-.388,0,2.338,2.338,0,0,0-.645,0c-.542.048-1.082.1-1.145-.684-.031-.384.936-1.129,1.532-1.252,2.232-.461,4.495-.773,6.756-1.033.375-.043.806.455,1.211.7-.321.354-.591.923-.973,1.025-2.084.556-4.2,1-6.3,1.476C1980.126-1414.8,1980.109-1414.882,1980.093-1414.959Zm145.182-10.959a1.769,1.769,0,0,1-.848-1.2c-.144-1.672,2.468-3.461,3.863-2.674a2.834,2.834,0,0,1,.726.843,3.372,3.372,0,0,1-3.043,3.185A1.562,1.562,0,0,1,2125.274-1425.919Zm-163.018-1.905c-.141-.835-.2-2.067.875-2.2.375-.045.894,1.233,1.451,2.061l-1.294,2.081A6.867,6.867,0,0,1,1962.257-1427.824Zm18.422.1c.329-.341.617-.917.992-.987,5.026-.948,10.052-1.9,15.1-2.687,2.481-.389,5.006-.482,7.515-.634.361-.022.745.392,1.118.6-.319.347-.6.942-.964,1-7.487,1.233-14.984,2.406-22.574,3.6Zm-24.223-35.979q0-23.68,0-47.36c0-.32-.1-.713.045-.94a1.6,1.6,0,0,1,.9-.75c.223-.037.62.391.762.7a2.817,2.817,0,0,1,.062,1.079q.164,21.694.329,43.389c.008.949.079,1.9.13,3.058,2.417-.148,4.619-.265,6.818-.421q19.015-1.352,38.028-2.718,7.916-.566,15.835-1.12c.13-.009.283-.075.384-.023.447.225.879.483,1.317.73-.412.351-.8.968-1.24,1.011-4.36.428-8.73.759-13.1,1.122l-38.383,3.2c-3.371.282-6.742.57-10.114.842-.251.02-.467.033-.652.033C1956.579-1461.864,1956.456-1462.225,1956.455-1463.7Zm143.837-9.362a5.711,5.711,0,0,1-4.3-5.644q-.045-19.64,0-39.279a5.746,5.746,0,0,1,5.83-5.98c7.979.12,15.956.319,23.934.485v.046c8.064.2,16.129.392,24.192.618,4.2.118,6.361,2.489,6.362,6.891q0,16.492,0,32.983c0,4.175-1.842,6.343-5.828,6.646-9.9.749-19.81,1.429-29.715,2.142-5.71.411-11.417.851-17.129,1.233-.465.031-.938.056-1.41.056A8.355,8.355,0,0,1,2100.292-1473.061Zm1.939-48.573c-2.649.008-3.931,1.363-3.934,4.091q-.02,19.089-.009,38.176c0,2.692,1.553,4.212,4.13,4.086,1.559-.077,3.115-.2,4.672-.3q21.411-1.485,42.822-2.967c3.159-.218,4.453-1.607,4.454-4.905q0-13.753,0-27.5c0-2.053.028-4.106-.016-6.157-.054-2.456-1.388-3.848-3.735-3.984q-.649-.038-1.3-.037c-7.673,0-15.348-.5-23.021-.5q-6.768,0-13.536-.005Q2107.494-1521.648,2102.231-1521.634Zm-68.257,40.309c-.313-.039-.59-.414-.882-.635.241-.319.422-.808.734-.932a13.035,13.035,0,0,1,7.645-.541c.32.067.563.54.841.825-.253.265-.472.7-.763.765-1.431.309-2.882.517-4.165.734C2036.121-1481.179,2035.04-1481.192,2033.974-1481.324Zm22.756-1.066c-.375-.1-.667-.55-1-.841.3-.28.547-.7.893-.817a10.385,10.385,0,0,1,6.251.022c.292.08.7.522.689.773a1.126,1.126,0,0,1-.7.8c-1.09.247-2.2.365-3.216.517A28.55,28.55,0,0,1,2056.73-1482.39Zm-25.186-22.666c.29-.284.545-.757.875-.822,2.159-.426,4.335-.763,6.009-1.045,1.657.165,2.782.229,3.888.418a1.077,1.077,0,0,1,.722.742,1.074,1.074,0,0,1-.669.811q-4.964.406-9.94.653h-.011C2032.138-1504.3,2031.836-1504.794,2031.545-1505.056Zm22.3-.975c.27-.306.5-.816.815-.885,1.974-.437,3.97-.774,5.958-1.145l.048.177c1.118.1,2.244.14,3.347.33.365.062.669.508,1,.778-.271.292-.526.814-.815.838q-4.76.373-9.531.579h-.01C2054.395-1505.359,2054.115-1505.8,2053.844-1506.03Zm86.162-1.016a1.1,1.1,0,0,1-.733-.739,1.128,1.128,0,0,1,.657-.823,16.149,16.149,0,0,1,7.847-.288,1.061,1.061,0,0,1,.667.781,1.143,1.143,0,0,1-.723.783c-1.434.312-2.887.522-4.119.732C2142.234-1506.758,2141.111-1506.842,2140.007-1507.046Zm-13.712-14.6v0Z" transform="translate(-1940 1527)" fill="#fff"/>
    </g>
  </g>
</svg>
