<svg xmlns="http://www.w3.org/2000/svg" width="173.79" height="220" viewBox="0 0 173.79 220">
  <g id="Group_3120" data-name="Group 3120" transform="translate(0 0)">
    <g id="Group_3123" data-name="Group 3123">
      <path id="White" d="M1424.863-997.157c-.4-3.715-.807-7.447-.869-11.175-.169-10.6-.186-21.2-.294-31.806.1.092.2.184.3.275.084,8.035.108,16.072.328,24.107.161,5.856.63,11.708,1.043,17.554a9.631,9.631,0,0,0,.891,2.483,12.729,12.729,0,0,0,2.353-1.3c.8-.68,1.881-1.184,1.878-2.55-.02-11.911-.009-23.824-.028-35.735a35,35,0,0,0,3.637,1.74v31.04c4.6-5.791,8.948-11.27,13.337-16.8,5.313,5.707,10.443,11.22,15.573,16.733l.292-.266v-31.761a35.922,35.922,0,0,0,3.662-2.1q-.03,18.224-.005,36.442c0,.353-.014.851.2,1.035,1.407,1.212,2.769,2.533,4.7,2.911,1.035-2.841,1.576-31.282,1.011-45.229.055-.058.111-.117.169-.175q.162,19.04.227,38.088c.006,2.253-.336,4.505-.469,6.763-.072,1.2-.771,1.507-1.661,1.032a18.913,18.913,0,0,1-4.42-2.783c-5.2-5.046-10.268-10.221-15.348-15.384-1.293-1.316-2.447-2.761-3.8-4.3-.422.5-.8.93-1.163,1.376-4.586,5.674-9.117,11.392-13.784,17a26.928,26.928,0,0,1-4.584,4.19,3.083,3.083,0,0,1-1.717.753C1425.517-995,1425.018-995.726,1424.863-997.157Zm-103.483-85.186c-23.888-35.856-17.427-83.066,15.015-111.657,31.706-27.941,79.771-28.043,112.034-.052,32.508,28.2,35.546,71.716,21.538,100.076a35.346,35.346,0,0,0-3.987-2.822c9.233-21.141,9.43-42.5.514-63.848-7.685-18.394-20.781-32-38.645-40.858-35.24-17.474-78.583-6.3-101.169,25.926-22.16,31.618-16.717,69.96.008,92.025.688-3.252,1.268-6.55,2.089-9.785,4.617-18.2,16.358-29.687,33.843-35.708a78.693,78.693,0,0,1,16.058-3.5c.269-.033.536-.077,1.074-.161q1.041-7.074,2.083-14.188a3.833,3.833,0,0,0-1.506-3.4c-1.3-1.246-2.583-2.516-3.946-3.693-3.865-3.337-5.446-7.672-5.624-12.635-.033-.877.036-1.761-.052-2.63a5.937,5.937,0,0,0-.527-1.226,4.28,4.28,0,0,1-.372-1.371,10.557,10.557,0,0,0-.053-2.459,13.26,13.26,0,0,1-.868,1.094,4.778,4.778,0,0,1-1.421,1.26,2.129,2.129,0,0,1-1.651-.173c-.244-.141-.249-.9-.172-1.348a18.788,18.788,0,0,1,.674-2.209c-.283.167-.394.245-.516.3-.561.256-1.229.824-1.662.683-.618-.205-.391-2.175.261-2.719.8-.661,1.625-1.282,2.775-2.181-.8-.081-1.138-.117-1.476-.145-.148-.013-.3-.012-.459-.011-.626.005-1.257.01-1.428-.887a2.291,2.291,0,0,1,1.681-2.387c.78-.213,1.534-.516,2.3-.777-.025-.161-.053-.321-.08-.482-.414-.117-.822-.258-1.243-.344-.778-.156-1.332-.453-1.047-1.393.239-.785.566-1.335,1.585-1.01.344.111.818-.186,1.234-.3a3.219,3.219,0,0,0-.482-1.1,1.37,1.37,0,0,1-.216-2.072c.649-.847,1.27-.369,1.908.058.747.5,1.418,1.424,2.625.511-.366-.273-.807-.43-.894-.7a2.764,2.764,0,0,1-.141-1.665.975.975,0,0,1,1.595-.43,2.195,2.195,0,0,0,.458.308c.436.153.888.27,1.332.4a6.243,6.243,0,0,1-.184-1.319,3.465,3.465,0,0,1,.372-1.664,1.145,1.145,0,0,1,1.773-.364,5.76,5.76,0,0,0,1.859.49c.055-.152.108-.308.163-.46-.221-.272-.424-.561-.665-.81a1.262,1.262,0,0,1,0-1.954,1.3,1.3,0,0,1,1.964-.116c.5.41.913.921,1.415,1.323a11.106,11.106,0,0,0,1.435.807c-.1-.9-.364-1.52-.172-1.933a13.521,13.521,0,0,1,1.5-2.139,10.383,10.383,0,0,1,1.434,1.26c.517.646.683,1.7,2.059,1.309-.053-.394-.1-.783-.153-1.166a2.109,2.109,0,0,1,2.014-2.283c.353.047.7.577.932.957.452.733-.022,2.2,1.5,2.065,1.57-.144.76-1.484.979-2.289,1.825-.622,2.711-.094,3.06,1.733.164.869.02,2.062,1.665,1.9-.089-.411-.145-.755-.239-1.085a1.781,1.781,0,0,1,.96-2.2c.777-.461,1.21-.217,1.387.616a4.84,4.84,0,0,0,.4,1.729,5.592,5.592,0,0,0,1.563,1.074,4.877,4.877,0,0,0,.594-1.316c.16-1.318.749-1.825,2.389-1.725a8.005,8.005,0,0,0-.333,2.131,2.6,2.6,0,0,0,.841,1.62c.585.464,1.049.116,1.523-.544a3.081,3.081,0,0,1,1.909-.791c.136-.02.516.907.63,1.429.244,1.115.758,1.856,1.981,1.892.915-1.7,1.973-1.934,3.577-.733-.169.294-.336.6-.525.9s-.4.589-.81,1.179c.926-.08,1.576-.13,2.222-.194.849-.089,1.435.022,1.792,1.031a2.664,2.664,0,0,0,1.634,1.368c2.505.685,2.522.625,1.2,2.816.966.172,2.37-.039,1.609,1.909h4.223c.05.149.1.3.152.454-.821.563-1.645,1.13-2.668,1.834.671.533,1.237.958,1.778,1.412,1.42,1.2,1.335,2.181-.258,3.032-1.54.827-1.592,1-.779,2.678.743,1.534-.707,4.164-2.411,4.234a2.431,2.431,0,0,1-1.39-.633c-.328-.256-.5-.711-1.01-.986.177,3.041.355,6.082.541,9.2l4.924,1.027c-.793,2.639-1.5,5.1-2.281,7.549-.465,1.463-1.859,1.085-2.951,1.307-.366,2.045-.653,4.092-1.116,6.1a61.611,61.611,0,0,1-1.769,6.386,10.322,10.322,0,0,1-8.379,7.188c-.45.081-.9.175-1.365.264a2.617,2.617,0,0,0,2.253,2.245c13.434,2.832,25.641,8.182,35.6,17.917a44.747,44.747,0,0,1,9.289,12.992c-.488-.092-.979-.172-1.476-.244-8.273-14.849-21.493-23.252-37.291-28.646a18.8,18.8,0,0,1-.846,3.973,32.391,32.391,0,0,1-3.064,5.211,2.98,2.98,0,0,0-.777,2.33,22.23,22.23,0,0,1,.025,2.916c-.589-.252-.9-.288-1.046-.464-1.171-1.423-2.339-1.276-3.915-.463a19.4,19.4,0,0,1-11.317,1.833,1.64,1.64,0,0,0-1.84.783c-.517.813-1.115,1.575-1.678,2.363l-.472-.438c-.117-.064-.305-.1-.338-.194-.786-2.167-2.561-2.847-4.594-3.587-6.57-2.4-10.457-7.308-12.2-14-.08-.31-.167-.618-.311-1.148-1.8.441-3.59.823-5.343,1.318-10.979,3.093-20.705,8.287-28.249,17.068-6.609,7.7-9.98,16.774-11.6,26.679a7.923,7.923,0,0,0,2.058,6.97,83.156,83.156,0,0,0,32.244,23.968c.455.189.924.355,1.563.6a140.452,140.452,0,0,1,4.3-26.4q-.587,4.32-1.174,8.636c-.754,5.58-1.492,11.162-2.273,16.738a1.393,1.393,0,0,0,1.091,1.806,77.307,77.307,0,0,0,49.354,1.3,34.835,34.835,0,0,0,2.281,4.423,77.474,77.474,0,0,1-24.625,3.878A84.845,84.845,0,0,1,1321.38-1082.343Zm75.578-36.3c.175,1.011.355,2.062.555,3.23,1.876-.353,3.667-.688,5.61-1.052-.541-1.115-.974-2-1.354-2.783C1400.057-1119.029,1398.511-1118.834,1396.958-1118.641Zm-3.326,3.157h3.2c-.184-1.187-.353-2.272-.589-3.786C1395.232-1117.8,1394.469-1116.7,1393.631-1115.483Zm-9.333-1.57c1.223.513,2.336.982,3.452,1.451.072-.1.147-.205.219-.305-.735-1.3-1.468-2.6-2.311-4.09C1385.147-1118.89,1384.753-1118.039,1384.3-1117.053Zm18.117-2.575c.472,1.032.879,1.931,1.343,2.952,1.179-.419,2.347-.835,3.7-1.315l-3.332-2.633C1403.53-1120.274,1402.981-1119.956,1402.415-1119.628Zm-23.114-.946,4.308,3.209c.611-1.1,1.066-1.922,1.524-2.75-1.143-.726-2.292-1.459-3.487-2.222C1380.924-1121.792,1380.2-1121.254,1379.3-1120.574Zm16.99,1.1.167.347q3.525-.783,7.052-1.562c0-.155,0-.311,0-.466-1.415-.987-2.827-1.976-4.308-3.012C1398.164-1122.5,1397.227-1120.988,1396.292-1119.475Zm13.376-5.28c.241,1.312.482,2.622.782,4.24.635-1,1.1-1.715,1.626-2.542-.76-.661-1.473-1.283-2.186-1.9C1409.817-1124.891,1409.742-1124.822,1409.667-1124.755Zm-32.78-6.9c1.714,4.327,4.092,8.132,8.2,10.673q-.3-.587-.59-1.174c-1.371-2.752-2.775-5.488-4.1-8.263-.6-1.265-.888-1.784-1.577-1.784A6.411,6.411,0,0,0,1376.888-1131.655Zm-.794,7.014c.988,1.267,1.876,2.4,2.772,3.55.851-.643,1.573-1.19,2.333-1.767-.743-.94-1.506-1.9-2.327-2.938Zm33.915-1.024,2.478,2.078c.633-1.543,1.251-3.044,1.95-4.741-1.112-.194-1.989-.345-2.8-.483Zm-27.325-36.736a5.606,5.606,0,0,0,.707,4.9c.643,1.01,1.376,1.965,2.037,2.966,1.4,2.108,1.364,3.773-.714,5.149a5.033,5.033,0,0,0-2.3,4.7,9.331,9.331,0,0,1-.189,1.509c-.654,3.57-1.32,7.141-2,10.8,6.04,2.394,12.072,4.794,18.12,7.152a1.308,1.308,0,0,0,1.091-.266c2.633-2.311,5.233-4.661,7.785-6.95-.194-1.67-1.054-2.427-2.663-2.33a4.869,4.869,0,0,1-1.235-.15c-3.862-.777-5.788-3.282-5.2-7.163.857-5.619,3.41-10.011,9.277-11.723.245-.069.478-.183.73-.283-.152-.194-.272-.347-.43-.547.93-.149,1.74-.305,2.559-.405a1.992,1.992,0,0,0,2.011-2.283c-.06-1.705-.086-3.412-.141-5.118,0-.117-.111-.23-.2-.405l-.89.088c-.827,1.975-1.517,3.768-2.325,5.511a2.278,2.278,0,0,1-2.606,1.373c-1.82-.288-3.631-.624-5.458-.87a2.287,2.287,0,0,1-2.192-2.242c-.248-2.2-.489-4.392-.743-6.709-1.484.43-3,.874-4.509,1.312,0,1,0,1.87,0,2.744,0,.923.02,1.848-.024,2.768-.048.958-.264,1.845-1.346,2.183a2.076,2.076,0,0,1-2.6-1.035c-.549-.985-.822-2.12-1.293-3.155a8.564,8.564,0,0,0-1.426-2.577,2.515,2.515,0,0,0-1.741-.828A2.328,2.328,0,0,0,1382.684-1162.4Zm-8.554,33.759c.616,1.249,1.154,2.339,1.689,3.421.955-.405,1.79-.757,2.752-1.167-.485-1-.938-1.937-1.426-2.944C1376.158-1129.1,1375.212-1128.889,1374.13-1128.642Zm35.215,2.367c.117.013.233.031.347.047.554-1.656,1.107-3.313,1.7-5.1l-3.379-.813C1408.494-1130.029,1408.921-1128.154,1409.345-1126.275Zm2.4-3.252c.932.172,1.8.333,2.73.5.086-.449.158-.835.253-1.335-1.032-.294-2-.572-3.08-.882C1411.69-1130.542,1411.718-1130.054,1411.748-1129.527Zm-38.437-1.623.7,1.961c1.085-.305,1.984-.558,2.933-.823-.167-.586-.314-1.108-.5-1.776C1375.337-1131.564,1374.379-1131.367,1373.311-1131.15Zm32.961-16.96a2.724,2.724,0,0,0,2.255,3.06c1.24.094,3.324-1.537,3.31-2.652,0-.167-.478-.488-.68-.449-.272.052-.482.391-.734.59-1.374,1.1-1.978,1.74-3.269-.28-.13-.205-.405-.318-.666-.513C1406.33-1148.18,1406.277-1148.146,1406.272-1148.11Zm5.554-6.137c3.141,1.3,4.573,4.181,5.566,7.6.425-2.55.849-5.1,1.3-7.8-2.453-.113-5.15.469-5.3-2.866C1412.883-1156.328,1412.356-1155.288,1411.826-1154.247Zm-38.656-19.385c-.7,1.446-1.764,2.928-1.82,4.428-.225,6.237,1.634,11.684,6.709,15.779a66.465,66.465,0,0,1,4.985,4.941c.237-.18.727-.51,1.16-.9,1.984-1.8,2.086-2.991.513-5.125-.766-1.038-1.562-2.064-2.219-3.168a5.919,5.919,0,0,1-.344-5.458c.738-1.842,2.55-2.552,4.162-1.4a2.963,2.963,0,0,0,3.154.294,7.725,7.725,0,0,1,1.725-.48c.96-.125,1.24-.577,1.252-1.553.039-2.855.069-5.727,1.6-8.321.161-.273-.083-.786-.141-1.185a4.395,4.395,0,0,0-1.381.317c-.249.147-.325.635-.419.984a1.374,1.374,0,0,1-1.781,1.091c-.341-.1-.66-.855-.7-1.335-.086-1.048-.7-1.462-1.546-1.26-.36.089-.693.843-.8,1.343a1.9,1.9,0,0,1-2.081,1.615c-1.221.036-.883-.9-.95-1.581-.019-.183.017-.433-.085-.533-.3-.293-.635-.674-1-.732-.222-.033-.643.418-.769.734a7.52,7.52,0,0,0-.252,1.5,1.688,1.688,0,0,1-2.2,1.612,2.165,2.165,0,0,1-.175-.433,1.487,1.487,0,0,0-1.36-1.481c-.907-.125-1.2.413-1.495,1.091a2.274,2.274,0,0,1-2.283,1.351,6.052,6.052,0,0,0,.18-1.44,1.145,1.145,0,0,0-.541-.849,1.253,1.253,0,0,0-.386-.052C1373.574-1173.847,1373.236-1173.769,1373.17-1173.632Zm41.946,10.188a1.771,1.771,0,0,0-1.131,1.248,46.868,46.868,0,0,0,.513,5.743,1.631,1.631,0,0,0,1.1,1.011,23.516,23.516,0,0,0,3.19.205v-8.576A27.335,27.335,0,0,0,1415.116-1163.444Zm4.612,8.038a1.843,1.843,0,0,0,2.535-1.415c.647-2.045,1.34-4.079,2.067-6.277-1.6-.221-2.988-.416-4.6-.641Zm-20.98-5.744c.846,4.143.147,3.31,3.973,4.059,5.019.98,5.935.283,7-4.777.027-.136.047-.272.077-.408.283-1.237-.081-2.122-1.417-2.336-3.182-.513-6.37-.99-9.9-1.534a36.623,36.623,0,0,1,9.267.572c1.315.233,2.624.613,2.988,1.895l2.788.161c.992-.988,2.365-.959,3.766-.931a15.3,15.3,0,0,0,1.588-.022v-9.113a4.688,4.688,0,0,1-.751.421c-.652.2-1.318.361-1.976.536a10.174,10.174,0,0,1,.111-2.064,18.948,18.948,0,0,1,.955-2.391c-1.748-.4-2.137-.04-2.372,1.661-.072.516-.4,1.257-.8,1.407a2.246,2.246,0,0,1-1.8-.23c-.422-.283-.464-1.074-.819-1.526a6.348,6.348,0,0,0-1.282-1c-.228.386-.621.76-.649,1.163-.084,1.19-.641,1.739-1.957,1.739.258-1.354,0-2.41-1.526-2.7-.61,3.579-.9,3.99-2.578,3.549a6.607,6.607,0,0,0,.031-.671c-.036-.689-.089-1.373-.133-2.062a16.458,16.458,0,0,0-1.428,1.107c-.913.869-2.342.96-2.544.081-.186-.8-.311-1.409-1.337-1.346-.982.064-1.309.66-1.537,1.49-.366,1.354-1.337,1.74-2.939,1.445-.208,2.547-.413,5.066-.632,7.749.746-.147,1.059-.2,1.367-.272a26.947,26.947,0,0,1,3.807-.621c0-.031-.008-.061-.011-.094.133.019.265.041.4.061l-.388.033C1398.344-1164.1,1398.451-1162.607,1398.748-1161.15Zm-10.574-2.136a25.171,25.171,0,0,0,.722,2.985,8.312,8.312,0,0,0,1.362,2.5,1.127,1.127,0,0,0,2.054-.577c.119-1.906.033-3.826.033-5.807C1390.854-1163.86,1389.475-1163.563,1388.174-1163.286Zm26.371,3.423a3.889,3.889,0,0,1,.63-1.292l.753,1.062c-.336.546-.595.967-.853,1.388C1414.882-1159.093,1414.516-1159.493,1414.544-1159.863Zm-11.524-1.388a3.944,3.944,0,0,1,.643-1.3l.864,1.1-.976,1.372C1403.36-1160.473,1402.99-1160.878,1403.021-1161.251Zm12.425-7.038c1.1.1,1.7.707,1.811,2.377Zm-10.409-.526-3.065,1.795C1402.3-1168.367,1403.3-1169,1405.037-1168.815Z" transform="translate(-1307 1215)" fill="#fff"/>
      <path id="Green" d="M1342.657-1149a32.655,32.655,0,0,1,9.591-23.158,32.651,32.651,0,0,1,23.158-9.591,32.641,32.641,0,0,1,23.155,9.591,32.651,32.651,0,0,1,9.591,23.158,32.642,32.642,0,0,1-9.591,23.155,32.641,32.641,0,0,1-23.155,9.591A32.747,32.747,0,0,1,1342.657-1149Zm46.319,17.4-2.417-14.081,10.232-9.971-14.139-2.056-6.323-12.81-6.323,12.81-14.138,2.056,10.232,9.971-2.417,14.081,12.646-6.647Zm-71.084-63.368c-2.088-2.586-10.893-19.793-10.893-19.793l1.085-.18,18.808,7.105,8.187-7.169.8.305c3.635,12.516,2.62,16.311,2.62,16.311l-1.047-.464s-4.705-3.734-10.39-7.876a74.657,74.657,0,0,1-8.359,12.393Z" transform="translate(-1234.863 1297.554)" fill="#5e30c1" stroke="rgba(0,0,0,0)" stroke-width="1"/>
    </g>
  </g>
</svg>
